<svg xmlns="http://www.w3.org/2000/svg" viewBox="0 0 64 64">
  <rect width="64" height="64" rx="14" fill="#003da5"/>
  <rect x="13" y="19" width="38" height="29" rx="6" fill="#f58220"/>
  <path d="M17 17h30a4 4 0 0 1 4 4v3H13v-3a4 4 0 0 1 4-4Z" fill="#ffffff"/>
  <rect x="18" y="24" width="12" height="10" rx="2" fill="#d9ecff"/>
  <rect x="34" y="24" width="12" height="10" rx="2" fill="#d9ecff"/>
  <rect x="18" y="38" width="6" height="4" rx="1.5" fill="#ffffff"/>
  <rect x="40" y="38" width="6" height="4" rx="1.5" fill="#ffffff"/>
  <circle cx="22" cy="49" r="4" fill="#172033"/>
  <circle cx="42" cy="49" r="4" fill="#172033"/>
  <circle cx="22" cy="49" r="1.6" fill="#ffffff"/>
  <circle cx="42" cy="49" r="1.6" fill="#ffffff"/>
</svg>
